solid OpenSCAD_Model
  facet normal 0 -0 -1
    outer loop
      vertex 2.12132 0 0
      vertex 3.88908 -1.76776 0
      vertex 1.76776 -3.88908 0
    endloop
  endfacet
  facet normal 0 0 -1
    outer loop
      vertex 2.12132 0 0
      vertex 0 2.12132 0
      vertex 1.76776 3.88908 0
    endloop
  endfacet
  facet normal 0 0 -1
    outer loop
      vertex 2.12132 0 0
      vertex 1.76776 3.88908 0
      vertex 3.88908 1.76776 0
    endloop
  endfacet
  facet normal 0 0 -1
    outer loop
      vertex -2.12132 0 0
      vertex 0 2.12132 0
      vertex 0 -2.12132 0
    endloop
  endfacet
  facet normal 0 0 -1
    outer loop
      vertex -3.88908 1.76776 0
      vertex -1.76776 3.88908 0
      vertex -2.12132 0 0
    endloop
  endfacet
  facet normal 0 0 -1
    outer loop
      vertex 0 -2.12132 0
      vertex 0 2.12132 0
      vertex 2.12132 0 0
    endloop
  endfacet
  facet normal 0 0 -1
    outer loop
      vertex -2.12132 0 0
      vertex -1.76776 3.88908 0
      vertex 0 2.12132 0
    endloop
  endfacet
  facet normal 0 0 -1
    outer loop
      vertex -1.76776 -3.88908 0
      vertex -3.88908 -1.76776 0
      vertex -2.12132 0 0
    endloop
  endfacet
  facet normal 0 0 -1
    outer loop
      vertex 1.76776 -3.88908 0
      vertex 0 -2.12132 0
      vertex 2.12132 0 0
    endloop
  endfacet
  facet normal -0 0 -1
    outer loop
      vertex 0 -2.12132 0
      vertex -1.76776 -3.88908 0
      vertex -2.12132 0 0
    endloop
  endfacet
  facet normal 0 0 1
    outer loop
      vertex 1.76776 -3.88908 5
      vertex 3.88908 -1.76776 5
      vertex 2.12132 0 5
    endloop
  endfacet
  facet normal 0 0 1
    outer loop
      vertex 1.76776 3.88908 5
      vertex 0 2.12132 5
      vertex 2.12132 0 5
    endloop
  endfacet
  facet normal 0 0 1
    outer loop
      vertex 3.88908 1.76776 5
      vertex 1.76776 3.88908 5
      vertex 2.12132 0 5
    endloop
  endfacet
  facet normal 0 -0 1
    outer loop
      vertex 0 -2.12132 5
      vertex 0 2.12132 5
      vertex -2.12132 0 5
    endloop
  endfacet
  facet normal 0 -0 1
    outer loop
      vertex -2.12132 0 5
      vertex -1.76776 3.88908 5
      vertex -3.88908 1.76776 5
    endloop
  endfacet
  facet normal 0 0 1
    outer loop
      vertex 2.12132 0 5
      vertex 0 2.12132 5
      vertex 0 -2.12132 5
    endloop
  endfacet
  facet normal 0 0 1
    outer loop
      vertex 0 2.12132 5
      vertex -1.76776 3.88908 5
      vertex -2.12132 0 5
    endloop
  endfacet
  facet normal 0 0 1
    outer loop
      vertex -2.12132 0 5
      vertex -3.88908 -1.76776 5
      vertex -1.76776 -3.88908 5
    endloop
  endfacet
  facet normal 0 0 1
    outer loop
      vertex 2.12132 0 5
      vertex 0 -2.12132 5
      vertex 1.76776 -3.88908 5
    endloop
  endfacet
  facet normal 0 0 1
    outer loop
      vertex -2.12132 0 5
      vertex -1.76776 -3.88908 5
      vertex 0 -2.12132 5
    endloop
  endfacet
  facet normal 0.707107 0.707107 0
    outer loop
      vertex 2.12132 0 0
      vertex 3.88908 -1.76776 5
      vertex 3.88908 -1.76776 0
    endloop
  endfacet
  facet normal 0.707107 0.707107 -0
    outer loop
      vertex 2.12132 0 0
      vertex 2.12132 0 5
      vertex 3.88908 -1.76776 5
    endloop
  endfacet
  facet normal 0.707107 -0.707107 0
    outer loop
      vertex 3.88908 1.76776 0
      vertex 2.12132 0 5
      vertex 2.12132 0 0
    endloop
  endfacet
  facet normal 0.707107 -0.707107 0
    outer loop
      vertex 3.88908 1.76776 0
      vertex 3.88908 1.76776 5
      vertex 2.12132 0 5
    endloop
  endfacet
  facet normal 0.707107 0.707107 0
    outer loop
      vertex 1.76776 3.88908 0
      vertex 3.88908 1.76776 5
      vertex 3.88908 1.76776 0
    endloop
  endfacet
  facet normal 0.707107 0.707107 -0
    outer loop
      vertex 1.76776 3.88908 0
      vertex 1.76776 3.88908 5
      vertex 3.88908 1.76776 5
    endloop
  endfacet
  facet normal -0.707107 0.707107 0
    outer loop
      vertex 0 2.12132 0
      vertex 1.76776 3.88908 5
      vertex 1.76776 3.88908 0
    endloop
  endfacet
  facet normal -0.707107 0.707107 0
    outer loop
      vertex 0 2.12132 0
      vertex 0 2.12132 5
      vertex 1.76776 3.88908 5
    endloop
  endfacet
  facet normal 0.707107 0.707107 0
    outer loop
      vertex -1.76776 3.88908 0
      vertex 0 2.12132 5
      vertex 0 2.12132 0
    endloop
  endfacet
  facet normal 0.707107 0.707107 -0
    outer loop
      vertex -1.76776 3.88908 0
      vertex -1.76776 3.88908 5
      vertex 0 2.12132 5
    endloop
  endfacet
  facet normal -0.707107 0.707107 0
    outer loop
      vertex -3.88908 1.76776 0
      vertex -1.76776 3.88908 5
      vertex -1.76776 3.88908 0
    endloop
  endfacet
  facet normal -0.707107 0.707107 0
    outer loop
      vertex -3.88908 1.76776 0
      vertex -3.88908 1.76776 5
      vertex -1.76776 3.88908 5
    endloop
  endfacet
  facet normal -0.707107 -0.707107 0
    outer loop
      vertex -2.12132 0 0
      vertex -3.88908 1.76776 5
      vertex -3.88908 1.76776 0
    endloop
  endfacet
  facet normal -0.707107 -0.707107 0
    outer loop
      vertex -2.12132 0 0
      vertex -2.12132 0 5
      vertex -3.88908 1.76776 5
    endloop
  endfacet
  facet normal -0.707107 0.707107 0
    outer loop
      vertex -3.88908 -1.76776 0
      vertex -2.12132 0 5
      vertex -2.12132 0 0
    endloop
  endfacet
  facet normal -0.707107 0.707107 0
    outer loop
      vertex -3.88908 -1.76776 0
      vertex -3.88908 -1.76776 5
      vertex -2.12132 0 5
    endloop
  endfacet
  facet normal -0.707107 -0.707107 0
    outer loop
      vertex -1.76776 -3.88908 0
      vertex -3.88908 -1.76776 5
      vertex -3.88908 -1.76776 0
    endloop
  endfacet
  facet normal -0.707107 -0.707107 0
    outer loop
      vertex -1.76776 -3.88908 0
      vertex -1.76776 -3.88908 5
      vertex -3.88908 -1.76776 5
    endloop
  endfacet
  facet normal 0.707107 -0.707107 0
    outer loop
      vertex 0 -2.12132 0
      vertex -1.76776 -3.88908 5
      vertex -1.76776 -3.88908 0
    endloop
  endfacet
  facet normal 0.707107 -0.707107 0
    outer loop
      vertex 0 -2.12132 0
      vertex 0 -2.12132 5
      vertex -1.76776 -3.88908 5
    endloop
  endfacet
  facet normal -0.707107 -0.707107 0
    outer loop
      vertex 1.76776 -3.88908 0
      vertex 0 -2.12132 5
      vertex 0 -2.12132 0
    endloop
  endfacet
  facet normal -0.707107 -0.707107 0
    outer loop
      vertex 1.76776 -3.88908 0
      vertex 1.76776 -3.88908 5
      vertex 0 -2.12132 5
    endloop
  endfacet
  facet normal 0.707107 -0.707107 0
    outer loop
      vertex 3.88908 -1.76776 0
      vertex 1.76776 -3.88908 5
      vertex 1.76776 -3.88908 0
    endloop
  endfacet
  facet normal 0.707107 -0.707107 0
    outer loop
      vertex 3.88908 -1.76776 0
      vertex 3.88908 -1.76776 5
      vertex 1.76776 -3.88908 5
    endloop
  endfacet
endsolid OpenSCAD_Model
